<?xml version="1.0" encoding="UTF-8" standalone="no"?>
<!-- Created with Inkscape (http://www.inkscape.org/) -->

<svg
   version="1.1"
   id="svg2"
   xml:space="preserve"
   width="1496"
   height="1496"
   viewBox="0 0 1496 1496"
   sodipodi:docname="6ed90dc17e33a619946a267962b8b052.eps"
   xmlns:inkscape="http://www.inkscape.org/namespaces/inkscape"
   xmlns:sodipodi="http://sodipodi.sourceforge.net/DTD/sodipodi-0.dtd"
   xmlns="http://www.w3.org/2000/svg"
   xmlns:svg="http://www.w3.org/2000/svg"><defs
     id="defs6" /><sodipodi:namedview
     id="namedview4"
     pagecolor="#ffffff"
     bordercolor="#666666"
     borderopacity="1.0"
     inkscape:pageshadow="2"
     inkscape:pageopacity="0.0"
     inkscape:pagecheckerboard="0" /><g
     id="g8"
     inkscape:groupmode="layer"
     inkscape:label="ink_ext_XXXXXX"
     transform="matrix(1.3333333,0,0,-1.3333333,0,1496)"><g
       id="g10"
       transform="scale(0.1)"><path
         d="M 11220,0 H 0 V 11220 H 11220 V 0"
         style="fill:#ffffff;fill-opacity:1;fill-rule:nonzero;stroke:none"
         id="path12" /><path
         d="m 5610,8067.94 c -656.54,0 -1273.78,-255.67 -1738.03,-719.91 C 3407.73,6883.78 3152.06,6266.54 3152.06,5610 c 0,-656.54 255.67,-1273.78 719.91,-1738.03 464.25,-464.24 1081.49,-719.91 1738.03,-719.91 656.54,0 1273.78,255.67 1738.03,719.91 464.24,464.25 719.91,1081.49 719.91,1738.03 0,656.54 -255.67,1273.78 -719.91,1738.03 -464.25,464.24 -1081.49,719.91 -1738.03,719.91 z m 0,-5115.88 c -709.96,0 -1377.43,276.47 -1879.45,778.49 -502.02,502.02 -778.49,1169.49 -778.49,1879.45 0,709.96 276.47,1377.43 778.49,1879.45 502.02,502.02 1169.49,778.49 1879.45,778.49 709.96,0 1377.43,-276.47 1879.45,-778.49 502.02,-502.02 778.49,-1169.49 778.49,-1879.45 0,-709.96 -276.47,-1377.43 -778.49,-1879.45 C 6987.43,3228.53 6319.96,2952.06 5610,2952.06"
         style="fill:#780b00;fill-opacity:1;fill-rule:nonzero;stroke:none"
         id="path14" /><path
         d="m 4940.78,5063.54 c 121.81,33.18 227.02,61.83 368.97,203.78 141.95,141.95 170.6,247.16 203.78,368.97 35.53,130.45 75.8,278.31 255.33,457.84 179.52,179.52 327.38,219.79 457.82,255.31 51.18,13.94 99.43,27.11 148.7,48.19 -198.02,192.48 -468.08,311.22 -765.38,311.22 -605.91,0 -1098.85,-492.94 -1098.85,-1098.85 0,-234.31 73.76,-451.68 199.22,-630.23 83.46,43.7 159.51,64.46 230.41,83.77"
         style="fill:#ae4536;fill-opacity:1;fill-rule:nonzero;stroke:none"
         id="path16" /><path
         d="m 6279.24,6156.47 c -121.82,-33.17 -227.02,-61.82 -368.96,-203.76 -141.95,-141.95 -170.6,-247.16 -203.78,-368.97 -35.53,-130.45 -75.8,-278.31 -255.33,-457.84 -179.53,-179.53 -327.39,-219.8 -457.84,-255.33 -51.18,-13.94 -99.44,-27.11 -148.72,-48.2 198.02,-192.48 468.08,-311.22 765.39,-311.22 605.91,0 1098.85,492.94 1098.85,1098.85 0,234.31 -73.76,451.68 -199.22,630.23 -83.46,-43.69 -159.5,-64.45 -230.39,-83.76"
         style="fill:#ae4536;fill-opacity:1;fill-rule:nonzero;stroke:none"
         id="path18" /><path
         d="m 5610,7893.07 c -609.83,0 -1183.15,-237.48 -1614.37,-668.7 -431.22,-431.22 -668.7,-1004.54 -668.7,-1614.37 0,-609.83 237.48,-1183.15 668.7,-1614.37 431.22,-431.22 1004.54,-668.7 1614.37,-668.7 609.83,0 1183.15,237.48 1614.37,668.7 431.22,431.22 668.7,1004.54 668.7,1614.37 0,609.83 -237.48,1183.15 -668.7,1614.37 -431.22,431.22 -1004.54,668.7 -1614.37,668.7 z m 0,-4666.14 c -636.54,0 -1234.98,247.88 -1685.08,697.99 -450.11,450.1 -697.99,1048.54 -697.99,1685.08 0,636.54 247.88,1234.98 697.99,1685.08 450.1,450.11 1048.54,697.99 1685.08,697.99 636.54,0 1234.98,-247.88 1685.08,-697.99 450.11,-450.1 697.99,-1048.54 697.99,-1685.08 0,-636.54 -247.88,-1234.98 -697.99,-1685.08 C 6844.98,3474.81 6246.54,3226.93 5610,3226.93"
         style="fill:#e6a670;fill-opacity:1;fill-rule:nonzero;stroke:none"
         id="path20" /><path
         d="m 4383.62,6406.53 c -24.91,-39.98 -54.15,-70.38 -87.73,-91.21 -33.59,-20.84 -69.79,-30.74 -108.62,-29.71 -38.83,1.03 -78.03,13.87 -117.59,38.53 -33.37,20.8 -61.55,48.79 -84.52,83.99 -22.97,35.2 -34.8,76.11 -35.5,122.74 -0.69,46.63 14.95,95.59 46.92,146.9 13.74,22.04 30.47,42.8 50.18,62.26 19.71,19.47 38.32,32.47 55.84,39 l 111.04,-82.07 -30.6,-36.71 -79.86,27.46 c -13.56,-1.57 -27.15,-7.32 -40.8,-17.27 -13.63,-9.95 -25.2,-22.55 -34.7,-37.79 -13.74,-22.05 -20.39,-44.66 -19.95,-67.81 0.44,-23.17 8.33,-45.74 23.65,-67.73 15.33,-22 37.73,-42.17 67.18,-60.54 34.21,-21.31 67.09,-33.72 98.66,-37.23 31.56,-3.51 60.11,1.22 85.65,14.2 25.54,12.97 46.84,33.16 63.92,60.57 12.45,19.98 20.81,41.31 25.07,63.97 4.25,22.66 5.56,45.08 3.94,67.26 l 41.7,-5.38 c 4.7,-14.95 7.03,-33.13 6.98,-54.55 -0.06,-21.43 -3.38,-44.32 -9.97,-68.67 -6.6,-24.35 -16.89,-47.76 -30.89,-70.21"
         style="fill:#780b00;fill-opacity:1;fill-rule:nonzero;stroke:none"
         id="path22" /><path
         d="m 4545.12,7165.18 c -34.52,-23.49 -50.65,-52.45 -48.38,-86.86 2.28,-34.42 18.16,-73.31 47.65,-116.67 17.07,-25.09 37.64,-48.1 61.7,-69.01 24.07,-20.92 49.82,-34.82 77.25,-41.7 27.44,-6.88 53.51,-1.93 78.19,14.87 64.03,43.56 65.19,110.69 3.47,201.43 -17.06,25.08 -37.73,48.24 -62,69.46 -24.27,21.22 -50.38,35.54 -78.33,42.95 -27.94,7.42 -54.46,2.59 -79.55,-14.47 z m 231.37,-354.38 c -39.74,-27.03 -79.05,-41.66 -117.91,-43.87 -38.87,-2.22 -75.14,6.65 -108.83,26.61 -33.68,19.95 -63.43,48.89 -89.23,86.83 -26.35,38.74 -41.57,78.37 -45.66,118.91 -4.08,40.52 3.72,79.45 23.41,116.77 19.68,37.31 50.9,70.52 93.65,99.6 38.74,26.35 77.47,41.39 116.19,45.12 38.71,3.73 75.58,-4.07 110.61,-23.41 35.02,-19.33 66.6,-49.67 94.73,-91.02 25.94,-38.14 40.31,-77.61 43.12,-118.42 2.81,-40.82 -6.02,-80.07 -26.47,-117.77 -20.46,-37.69 -51.66,-70.81 -93.61,-99.35"
         style="fill:#780b00;fill-opacity:1;fill-rule:nonzero;stroke:none"
         id="path24" /><path
         d="m 5069.3,7426.45 -1.93,40.38 386.7,71.66 6.38,-134.37 -46.8,-1.26 -31.03,73.5 -143.22,-26.54 31.45,-169.71 83.43,15.46 7.71,50.31 50.64,20.5 15.27,-162.35 -46.48,-18.98 -23.4,62.32 -78.41,-14.53 22.03,-118.87 86.4,-6.58 2.12,-41.46 -241.68,-44.78 -2.74,38.75 54.54,33.43 -60.31,325.47 -70.67,7.65"
         style="fill:#780b00;fill-opacity:1;fill-rule:nonzero;stroke:none"
         id="path26" /><path
         d="m 5795.82,7495.78 13.41,38.14 385.23,-79.15 -44.66,-126.88 -43.83,16.44 -1.08,79.77 -142.68,29.31 -34.73,-169.07 83.11,-17.07 26.08,43.71 54.63,-0.07 -46.95,-156.16 -50.21,-0.09 1.78,66.55 -78.12,16.05 -24.33,-118.43 77.57,-38.61 -13.63,-39.21 -240.77,49.47 12.05,36.93 63.11,10.45 66.62,324.24 -62.6,33.68"
         style="fill:#780b00;fill-opacity:1;fill-rule:nonzero;stroke:none"
         id="path28" /><path
         d="m 6498.15,7285.19 27.07,30.02 326.18,-222.32 -85.01,-104.68 -34.92,32.18 26.05,78.31 -122.46,83.47 -87.78,-128.78 70.71,-48.2 39.7,29.79 48.87,-21.41 -97.19,-120.61 -46.55,21.6 24.73,57.61 -65.29,44.51 -84.3,-123.67 129.09,-87.99 83.06,42.99 34.24,-29.95 -83.28,-102.77 -332.18,226.42 24.74,29.85 62.57,-14.89 186.43,273.52 -44.48,55"
         style="fill:#780b00;fill-opacity:1;fill-rule:nonzero;stroke:none"
         id="path30" /><path
         d="m 7079.82,6807.36 36.61,17.17 214.41,-331.42 -118.95,-63.51 -19.7,43.2 54.38,62.07 -80.5,124.44 -130.86,-84.66 46.48,-71.85 48.15,12.06 36.74,-38.68 -136.36,-73.47 -34.53,37.94 45.14,43.52 -42.92,66.35 -125.66,-81.3 84.86,-131.16 93.23,7.4 19.94,-40.88 -116.61,-62.43 -218.38,337.54 34.39,17.91 51.9,-37.99 277.92,179.8 -19.68,67.95"
         style="fill:#780b00;fill-opacity:1;fill-rule:nonzero;stroke:none"
         id="path32" /><path
         d="m 4020.78,4511.33 c -18.49,26.21 -30.96,52.53 -37.39,78.97 -6.43,26.43 -6.59,48.5 -0.46,66.19 l 96.18,57.83 22.65,-45.09 -46.25,-50.08 c -4.43,-11.86 -5.3,-25.56 -2.62,-41.11 2.69,-15.55 8.55,-29.74 17.59,-42.55 6.44,-9.13 14.33,-16.51 23.68,-22.13 9.34,-5.62 19.16,-8.51 29.45,-8.66 10.29,-0.16 20.1,3.05 29.41,9.63 8.93,6.29 14.76,14.84 17.47,25.63 2.71,10.78 3.53,22.41 2.44,34.87 -1.09,12.47 -3.42,29.07 -7,49.81 -4.99,29.34 -7.98,53.77 -8.95,73.29 -0.98,19.53 2.2,39.22 9.56,59.1 7.35,19.87 21.22,37 41.61,51.38 23.69,16.71 48.49,24.54 74.39,23.48 25.91,-1.06 50.38,-8.96 73.42,-23.68 23.03,-14.72 42.7,-33.63 59,-56.74 11.51,-16.31 21.05,-35.39 28.61,-57.24 7.57,-21.86 10.49,-40.22 8.77,-55.1 -1.94,-1.38 -16.48,-10.03 -43.61,-25.98 -27.14,-15.94 -45.64,-26.81 -55.51,-32.62 l -21.54,44.14 41.77,43.43 c 4.29,10 5.49,22.41 3.62,37.23 -1.88,14.81 -6.72,27.76 -14.53,38.83 -8.9,12.62 -19.7,20.2 -32.39,22.72 -12.69,2.54 -25.74,-0.92 -39.13,-10.38 -9.52,-6.71 -15.76,-15.9 -18.71,-27.58 -2.95,-11.69 -3.84,-24.24 -2.67,-37.66 1.18,-13.41 3.82,-31.47 7.91,-54.18 5.29,-30.58 8.47,-56.11 9.54,-76.59 1.07,-20.47 -1.98,-40.88 -9.16,-61.21 -7.18,-20.33 -20.86,-37.62 -41.05,-51.86 -24.86,-17.54 -51.15,-24.89 -78.89,-22.06 -27.73,2.82 -53.69,12.42 -77.89,28.79 -24.21,16.37 -43.98,35.43 -59.32,57.18"
         style="fill:#780b00;fill-opacity:1;fill-rule:nonzero;stroke:none"
         id="path34" /><path
         d="m 4856.46,4263.08 19.41,35.87 212.53,-74.72 -18.4,-36.22 -62.43,1.92 -42.56,-121.06 180.58,-63.48 41.97,119.37 -54.35,41.02 18.07,36.34 214.2,-75.3 -18.4,-36.23 -62.76,2.04 -108.29,-308.02 54.85,-37.42 -17.51,-36.92 -212.53,74.72 16.57,34.22 63.27,1.56 43.98,125.09 -180.57,63.49 -44.81,-127.45 55.86,-37.77 -18.86,-36.44 -211.51,74.36 15.89,34.46 63.94,1.33 106.88,303.98 -55.02,41.26"
         style="fill:#780b00;fill-opacity:1;fill-rule:nonzero;stroke:none"
         id="path36" /><path
         d="m 6090.84,4168.91 c -38.71,-13.1 -61.5,-36.2 -68.37,-69.25 -6.87,-33.06 -2.07,-73.9 14.39,-122.51 9.53,-28.14 22.9,-55.23 40.12,-81.25 17.21,-26.04 37.86,-45.89 61.94,-59.56 24.07,-13.68 49.95,-15.83 77.64,-6.45 71.79,24.31 90.47,87.33 56.02,189.07 -9.52,28.13 -22.96,55.38 -40.29,81.75 -17.33,26.37 -38.21,46.71 -62.62,61.02 -24.42,14.31 -50.7,16.71 -78.83,7.18 z m 125.41,-394.82 c -44.56,-15.09 -85.46,-18.59 -122.7,-10.5 -37.23,8.08 -69.12,25.95 -95.66,53.59 -26.55,27.64 -47.03,62.73 -61.43,105.27 -14.71,43.44 -18.68,84.81 -11.91,124.11 6.76,39.29 24.31,73.96 52.65,104.01 28.33,30.04 66.48,53.18 114.42,69.41 43.43,14.71 83.9,18.75 121.39,12.13 37.49,-6.63 70.23,-23.64 98.2,-51.05 27.96,-27.41 49.81,-64.3 65.5,-110.66 14.49,-42.77 17.7,-83.76 9.66,-122.99 -8.04,-39.23 -26.64,-73.94 -55.8,-104.13 -29.17,-30.2 -67.27,-53.26 -114.32,-69.19"
         style="fill:#780b00;fill-opacity:1;fill-rule:nonzero;stroke:none"
         id="path38" /><path
         d="m 7201.34,4528.51 -143.04,-198.76 -27.13,26.98 18.42,64.04 -256.63,184.67 -48.17,-44.37 -31.65,28.04 c 17.86,34.58 34.31,64.97 49.36,91.17 15.06,26.2 32.78,53.48 53.18,81.84 33.32,46.29 67.23,76.63 101.74,91.03 34.51,14.39 71.64,7.29 111.37,-21.3 22.57,-16.24 38.73,-37.1 48.51,-62.57 9.77,-25.48 12.41,-52.63 7.91,-81.45 -4.49,-28.83 -16.04,-56.16 -34.63,-82.01 -4.31,-5.98 -11.01,-14.48 -20.11,-25.49 l -42.03,19.7 7.21,10.62 c 18.21,26.13 25.86,50.18 22.96,72.19 -2.91,21.99 -15.45,40.98 -37.63,56.94 -22.57,16.24 -45.43,23.32 -68.59,21.25 -23.15,-2.07 -43.62,-15.45 -61.38,-40.14 -2.78,-3.86 -5.66,-8.38 -8.65,-13.54 -2.98,-5.17 -5.26,-9.24 -6.81,-12.22 l 268.48,-193.21 66.34,56.78 30.97,-30.19"
         style="fill:#780b00;fill-opacity:1;fill-rule:nonzero;stroke:none"
         id="path40" /><path
         d="m 3912.71,5895.32 70.82,-217.97 h 229.18 l -185.41,-134.7 70.82,-217.97 -185.41,134.71 -185.41,-134.71 70.82,217.97 -185.41,134.7 h 229.18 l 70.82,217.97"
         style="fill:#e6a670;fill-opacity:1;fill-rule:nonzero;stroke:none"
         id="path42" /><path
         d="m 7307.29,5895.32 70.82,-217.97 h 229.18 l -185.41,-134.7 70.82,-217.97 -185.41,134.71 -185.41,-134.71 70.82,217.97 -185.41,134.7 h 229.18 l 70.82,217.97"
         style="fill:#e6a670;fill-opacity:1;fill-rule:nonzero;stroke:none"
         id="path44" /></g></g></svg>
